<svg xmlns="http://www.w3.org/2000/svg" xmlns:xlink="http://www.w3.org/1999/xlink" viewBox="0 0 1080 1080"><defs><symbol id="b" viewBox="0 0 528.894 622.166"><path fill="#7cec2b" stroke="#000" stroke-linecap="round" stroke-linejoin="round" stroke-width="2" d="m424.0972,46.20708c-11.05472-10.0128-9.85392-18.85518-3.75917-25.58414,6.09475-6.72896,14.77549-8.79639,25.83021,1.21641,11.05472,10.0128,20.29723,28.31419,14.20248,35.04315-6.09475,6.72896-25.2188-.66263-36.27352-10.67543Z" class="color2b47ec svgShape colorStroke000000 svgStroke"/><ellipse cx="478.83" cy="76.845" fill="#9dff55" stroke="#000" stroke-linecap="round" stroke-linejoin="round" stroke-width="2" class="colorffde55 svgShape colorStroke000000 svgStroke" rx="52.142" ry="34.762" transform="rotate(-27.071 478.83 76.845)"/><path fill="#3a5b22" stroke-width="0" d="m494.64913,107.79823c3.59303-1.83619,6.94155-3.90224,10.03678-6.1336-18.62765-19.54641-26.43493-44.90065-29.63887-60.70766-4.0127,1.25683-8.05187,2.89799-12.03726,4.93474-4.1403,2.11607-7.96403,4.53211-11.4377,7.16232,4.51017,26.05909,18.37067,47.86502,28.1147,60.52265,4.96815-1.32998,10.00648-3.24562,14.96235-5.77845Z" class="color000000 svgShape"/><path fill="#3a5b22" stroke-width="0" d="m437.5234,67.43946c-7.75676,11.1175-10.13073,23.33835-5.12375,33.13511,4.81739,9.42581,15.45629,14.62738,28.32628,15.2099-14.06587-15.75529-20.39915-35.32917-23.20253-48.34501Z" class="color000000 svgShape"/><path fill="#b8ff85" stroke="#000" stroke-linecap="round" stroke-linejoin="round" stroke-width="2" d="m446.50685,20.41504c1.77205-15.85298,10.19413-20.34185,19.84377-19.26322,9.64964,1.07864,16.87271,7.31633,15.10066,23.16931s-11.86817,35.31804-21.51781,34.2394c-9.64964-1.07864-15.19867-22.29251-13.42662-38.14549Z" class="color85bcff svgShape colorStroke000000 svgStroke"/><path fill="#3a5b22" stroke-width="0" d="m506.45502,55.20732h0c-1.11489.56981-2.48061.12793-3.05041-.98697l-3.43908-6.72897c-.5698-1.11489-.12792-2.48061.98697-3.05041h0c1.11489-.56981,2.48061-.12793,3.05041.98697l3.43908,6.72897c.5698,1.11489.12792,2.48061-.98697,3.05041Z" class="color000000 svgShape"/><path fill="#7cec2b" stroke="#000" stroke-linecap="round" stroke-linejoin="round" stroke-width="2" d="m97.78277,384.13636c8.1977-12.46037,4.82258-20.72101-2.76199-25.71091-7.58457-4.9899-16.50648-4.8195-24.70418,7.64087-8.1977,12.46037-12.56688,32.49222-4.98231,37.48212,7.58457,4.9899,24.25078-6.95172,32.44848-19.41209Z" class="color2b47ec svgShape colorStroke000000 svgStroke"/><ellipse cx="52.458" cy="427.495" fill="#9dff55" stroke="#000" stroke-linecap="round" stroke-linejoin="round" stroke-width="2" class="colorffde55 svgShape colorStroke000000 svgStroke" rx="34.762" ry="52.142" transform="rotate(-77.419 52.458 427.495)"/><path fill="#3a5b22" stroke-width="0" d="m44.88625,461.42157c-3.93818-.87874-7.69715-2.04122-11.25224-3.42712,13.14426-23.58559,14.35913-50.08682,13.50597-66.19268,4.19953.2128,8.52086.79109,12.88911,1.76584,4.53807,1.01279,8.84471,2.3952,12.866,4.07258,2.15373,26.35867-5.80966,50.93907-12.07658,65.63219-5.14289-.04456-10.50028-.63859-15.93226-1.8508Z" class="color000000 svgShape"/><path fill="#3a5b22" stroke-width="0" d="m90.09635,408.05281c10.29181,8.82298,15.64811,20.06107,13.25172,30.79902-2.30565,10.33137-11.30461,18.02951-23.61944,21.81379,9.67619-18.77363,10.91029-39.30955,10.36772-52.61281Z" class="color000000 svgShape"/><path fill="#b8ff85" stroke="#000" stroke-linecap="round" stroke-linejoin="round" stroke-width="2" d="m69.63236,364.77205c-5.68236-14.9053-14.95973-17.14403-24.03252-13.68521-9.07279,3.45883-14.50532,11.30543-8.82296,26.21073,5.68236,14.9053,20.32781,31.22495,29.4006,27.76612,9.07279-3.45883,9.13723-25.38635,3.45488-40.29164Z" class="color85bcff svgShape colorStroke000000 svgStroke"/><path fill="#3a5b22" stroke-width="0" d="m20.29678,413.45762h0c1.222.27271,2.43371-.49683,2.70642-1.71883l1.64598-7.37544c.27271-1.222-.49684-2.43371-1.71884-2.70642h0c-1.222-.27271-2.43371.49683-2.70642,1.71883l-1.64598,7.37544c-.27271,1.222.49683,2.43371,1.71884,2.70642Z" class="color000000 svgShape"/><path fill="none" stroke="#000" stroke-dasharray="0 8" stroke-linecap="round" stroke-linejoin="round" stroke-width="2" d="m423.42775,101.02694c-44.86308,3.58905-72.70799,158.67204-153.18302,138.93229-80.47504-19.73976-33.8845-84.82202,12.84017-86.13712,46.72467-1.3151,133.23331,36.65676,97.34285,119.20483-35.89047,82.54807-131.01808,104.79085-86.40945,150.36923" class="colorStroke000000 svgStroke"/><path fill="none" stroke="#000" stroke-dasharray="0 8" stroke-linecap="round" stroke-linejoin="round" stroke-width="2" d="m112.45909,441.82147s34.9111-3.87901,80.23379,39.73122c31.21036,30.03113,84.04601,91.98026,108.40219,52.30599,31.49792-51.30759-157.60389-43.54957-101.8431,59.72911,18.29455,33.88468,93.97003,33.25691,142.65693,15.78564" class="colorStroke000000 svgStroke"/><circle cx="362.518" cy="597.804" r="10.767" fill="#fff" stroke="#000" stroke-linecap="round" stroke-miterlimit="10" stroke-width="2" class="colorffffff svgShape colorStroke000000 svgStroke"/><circle cx="333.374" cy="401.544" r="5.957" fill="#c4ff99" stroke="#000" stroke-linecap="round" stroke-linejoin="round" stroke-width="2" class="colorff99d1 svgShape colorStroke000000 svgStroke"/><circle cx="208.997" cy="339.699" r="7.926" fill="#fff" stroke="#000" stroke-linecap="round" stroke-linejoin="round" stroke-width="2" class="colorffffff svgShape colorStroke000000 svgStroke"/><circle cx="314.275" cy="423.452" r="11.538" fill="#c4ff99" stroke="#000" stroke-linecap="round" stroke-linejoin="round" stroke-width="2" class="colorff99d1 svgShape colorStroke000000 svgStroke"/><circle cx="229.539" cy="143" r="10.767" fill="#b8ff85" stroke="#000" stroke-linecap="round" stroke-linejoin="round" stroke-width="2" class="color85bcff svgShape colorStroke000000 svgStroke"/><circle cx="123.292" cy="307.272" r="16.151" fill="#92ff43" stroke="#000" stroke-linecap="round" stroke-linejoin="round" stroke-width="2" class="colorff5943 svgShape colorStroke000000 svgStroke"/></symbol><symbol id="a" viewBox="0 0 531.494 639"><rect width="74" height="96" x="228.747" y="1" fill="#92ff43" stroke="#000" stroke-linecap="round" stroke-linejoin="round" stroke-width="2" class="colorff5943 svgShape colorStroke000000 svgStroke" rx="37" ry="37"/><path fill="#9dff55" stroke="#000" stroke-linecap="round" stroke-linejoin="round" stroke-width="2" d="m503.52344,413.30566c-12.77441-72.99414-12.77637-143.29053-12.77637-143.29053,0-124.09399-100.59814-224.69202-224.69189-224.69202h-.00049c-124.09399,0-224.69189,100.59802-224.69189,224.69202,0,0,.24365,73.81641-13.87378,143.78296-16.96533,17.73914-26.48901,37.65479-26.48901,58.7019,0,74.28223,118.53125,134.5,264.74707,134.5s264.74707-60.21777,264.74707-134.5c0-21.24292-9.70801-41.3313-26.9707-59.19434Z" class="colorffde55 svgShape colorStroke000000 svgStroke"/><path fill="none" stroke="#000" stroke-linecap="round" stroke-linejoin="round" stroke-width="2" d="m1.00003,472.5c0-74.2823,118.53129-134.5,264.74704-134.5" class="colorStroke000000 svgStroke"/><ellipse cx="265.247" cy="494" fill="#7cec2b" stroke="#000" stroke-linecap="round" stroke-linejoin="round" stroke-width="2" class="color2b47ec svgShape colorStroke000000 svgStroke" rx="217.132" ry="81"/><path fill="#6cc12f" stroke="#000" stroke-linecap="round" stroke-linejoin="round" stroke-width="2" d="m265.24707,415.40594c-95.95459,0-177.36157,23.22081-206.06982,55.41906-18.43018,31.99678,109.7998,76.10569,207.96582,76.10569,95.95435,0,210.604-32.88119,206.06982-73.86461-26.86377-33.35619-109.7998-57.66014-207.96582-57.66014Z" class="color2fc163 svgShape colorStroke000000 svgStroke"/><path fill="#fff" stroke="#000" stroke-linecap="round" stroke-linejoin="round" stroke-width="2" d="m265.24707,413c-6.74463,0-13.41235.15063-20,.43054v146.56946c0,11.04565,8.95435,20,20,20s20-8.95435,20-20v-146.56946c-6.58765-.27991-13.25537-.43054-20-.43054Z" class="colorffffff svgShape colorStroke000000 svgStroke"/><circle cx="265.747" cy="594" r="44" fill="#92ff43" stroke="#000" stroke-linecap="round" stroke-linejoin="round" stroke-width="2" class="colorff5943 svgShape colorStroke000000 svgStroke"/><path fill="none" stroke="#000" stroke-linecap="round" stroke-linejoin="round" stroke-width="2" d="m321.68196,91.50534s-34.17617,7.98502-55.85171-8.45674c-10.74462-8.15022-11.06503-16.85671-5.40682-20.25877,5.65821-3.40206,13.54036,12.57912,6.24899,23.20581-9.66115,14.08049-36.67715,26.03719-60.40585,15.73206" class="colorStroke000000 svgStroke"/><path fill="none" stroke="#000" stroke-linecap="round" stroke-linejoin="round" stroke-width="6" d="m349.16814,114.19181c0,16.29978-13.21358,29.51336-29.51336,29.51336h-.00006c-16.29978,0-29.51336-13.21358-29.51336-29.51336" class="colorStroke000000 svgStroke"/><path fill="none" stroke="#000" stroke-linecap="round" stroke-linejoin="round" stroke-width="6" d="m253.49409,114.19181c0,16.29978-13.21358,29.51336-29.51336,29.51336h-.00006c-16.29978,0-29.51336-13.21358-29.51336-29.51336" class="colorStroke000000 svgStroke"/><path stroke="#000" stroke-linecap="round" stroke-linejoin="round" stroke-width="2" d="m269.04916,188.47987h.00002c6.21638,0,11.25576-5.03938,11.25576-11.25576v-22.51156c0-6.21638-5.03938-11.25576-11.25576-11.25576h-.00002c-6.21638,0-11.25576,5.03938-11.25576,11.25576v22.51156c0,6.21638,5.03938,11.25576,11.25576,11.25576Z" class="colorStroke000000 svgStroke"/><path fill="#92ff43" stroke="#000" stroke-linecap="round" stroke-linejoin="round" stroke-width="2" d="m280.30494,170.17639v7.0477c0,6.21637-5.03927,11.25577-11.25577,11.25577s-11.25577-5.0394-11.25577-11.25577v-18.37362c5.68037.60847,13.84465,3.15373,22.51154,11.32591Z" class="colorff5943 svgShape colorStroke000000 svgStroke"/><path fill="#9dff55" stroke="#000" stroke-linecap="round" stroke-linejoin="round" stroke-width="2" d="m241.13002,149.32311c10.83698-.63452,20.13647,7.6362,20.77099,18.47318v.00004c.63452,10.83698-7.6362,20.13647-18.47318,20.77099" class="colorffde55 svgShape colorStroke000000 svgStroke"/><path fill="#fff" stroke="#000" stroke-linecap="round" stroke-linejoin="round" stroke-width="2" d="m286.78042,165.03338c2.87399,1.60644,4.63592,4.42228,5.02856,7.45467,4.42787-3.91511,10.55874-5.42784,16.33738-3.95862.53218-1.43046,1.17902-2.83887,1.94686-4.21257,8.08397-14.46257,26.3615-19.63349,40.82413-11.54949,14.46263,8.084,19.63346,26.36155,11.54949,40.82413-8.08397,14.46257-26.3615,19.63349-40.82413,11.54949-2.52875-1.41346-4.7662-3.14391-6.70567-5.10574-5.54641,4.41509-13.42478,5.30982-19.99577,1.63691-6.85571-3.83205-10.21156-11.48065-8.93483-18.8031-2.78862,1.25413-6.11024,1.22863-8.98423-.37781-4.82095-2.69471-6.54448-8.7872-3.84983-13.60804,2.69468-4.82089,8.78709-6.54454,13.60804-3.84983Z" class="colorffffff svgShape colorStroke000000 svgStroke"/><circle cx="387.247" cy="158.5" r="11.5" fill="#a6e07c" stroke="#000" stroke-linecap="round" stroke-linejoin="round" stroke-width="2" class="color7ce09d svgShape colorStroke000000 svgStroke"/></symbol><symbol id="d" viewBox="0 0 63.87 93.118"><path fill="#fff" stroke="#000" stroke-linecap="round" stroke-miterlimit="10" stroke-width="2" d="m54.53905,10.66468C48.98524,4.22181,41.44131,1,31.90279,1c-9.53703,0-17.072,3.22181-22.60491,9.66468C3.76646,17.10904,1,25.88392,1,36.9893v19.07555c0,11.10688,2.76646,19.89295,8.29787,26.35672,5.53291,6.46526,13.06788,9.69678,22.60491,9.69678,9.53852,0,17.08245-3.23151,22.63626-9.69678,5.55381-6.46377,8.33072-15.24984,8.33072-26.35672v-19.07555c0-11.10539-2.77691-19.88026-8.33072-26.32462Zm-14.99354,53.81625c0,6.50546-2.5494,9.75773-7.65003,9.75773-5.04748,0-7.57122-3.25227-7.57122-9.75773V28.57398c0-6.50454,2.52374-9.75773,7.57122-9.75773,5.10063,0,7.65003,3.25319,7.65003,9.75773v35.90695Z" class="colorffffff svgShape colorStroke000000 svgStroke"/></symbol><symbol id="c" viewBox="0 0 173.869 138.883"><path fill="#7cec2b" stroke="#000" stroke-linecap="round" stroke-linejoin="round" stroke-width="2" d="m119.25232,137.88313H19.40312c-10.97723,0-19.51273-9.54959-18.28554-20.45801L12.37673,17.34376C13.42386,8.03596,21.29575,1,30.66227,1h99.8492c10.97723,0,19.51273,9.54959,18.28554,20.45801l-11.25915,100.08136c-1.04713,9.3078-8.91902,16.34376-18.28554,16.34376Z" class="color2b47ec svgShape colorStroke000000 svgStroke"/><path fill="#b8ff85" stroke="#000" stroke-linecap="round" stroke-linejoin="round" stroke-width="2" d="m143.20687,137.88313H43.35766c-10.97723,0-19.51273-9.54959-18.28554-20.45801l11.25915-100.08136c1.04713-9.3078,8.91902-16.34376,18.28554-16.34376h99.8492c10.97723,0,19.51273,9.54959,18.28554,20.45801l-11.25915,100.08136c-1.04713,9.3078-8.91902,16.34376-18.28554,16.34376Z" class="color85bcff svgShape colorStroke000000 svgStroke"/></symbol></defs><use width="531.494" height="639" fill="#3a5b22" class="color000000 svgShape" transform="translate(274.253 265)" xlink:href="#a"/><use width="528.894" height="622.166" fill="#3a5b22" class="color000000 svgShape" transform="translate(133.572 109.973)" xlink:href="#b"/><use width="173.869" height="138.883" fill="#3a5b22" class="color000000 svgShape" transform="translate(716.2 629.999) scale(1.38955)" xlink:href="#c"/><use width="63.87" height="93.118" fill="#3a5b22" class="color000000 svgShape" transform="matrix(1.3696 0 0 1.38674 804.823 660.595)" xlink:href="#d"/></svg>